<?xml version="1.0" encoding="UTF-8" standalone="no"?>
<!-- Created with Inkscape (http://www.inkscape.org/) -->

<svg
   xmlns:dc="http://purl.org/dc/elements/1.1/"
   xmlns:cc="http://creativecommons.org/ns#"
   xmlns:rdf="http://www.w3.org/1999/02/22-rdf-syntax-ns#"
   xmlns:svg="http://www.w3.org/2000/svg"
   xmlns="http://www.w3.org/2000/svg"
   xmlns:sodipodi="http://sodipodi.sourceforge.net/DTD/sodipodi-0.dtd"
   xmlns:inkscape="http://www.inkscape.org/namespaces/inkscape"
   width="226.65988mm"
   height="92.544579mm"
   viewBox="0 0 803.12556 327.91386"
   id="svg3571"
   version="1.1"
   inkscape:version="0.48.4 r9939"
   sodipodi:docname="logotipo.svg">
  <defs
     id="defs3573">
    <clipPath
       id="presentation_clip_path"
       clipPathUnits="userSpaceOnUse">
      <rect
         x="4591"
         y="7926"
         width="14675"
         height="14675"
         id="rect3982" />
    </clipPath>
  </defs>
  <sodipodi:namedview
     id="base"
     pagecolor="#ffffff"
     bordercolor="#666666"
     borderopacity="1.0"
     inkscape:pageopacity="0.0"
     inkscape:pageshadow="2"
     inkscape:zoom="1.244837"
     inkscape:cx="396.39837"
     inkscape:cy="144.9048"
     inkscape:document-units="px"
     inkscape:current-layer="layer1"
     showgrid="false"
     inkscape:window-width="1920"
     inkscape:window-height="1029"
     inkscape:window-x="0"
     inkscape:window-y="25"
     inkscape:window-maximized="1"
     fit-margin-top="0"
     fit-margin-left="0"
     fit-margin-right="0"
     fit-margin-bottom="0" />
  <metadata
     id="metadata3576">
    <rdf:RDF>
      <cc:Work
         rdf:about="">
        <dc:format>image/svg+xml</dc:format>
        <dc:type
           rdf:resource="http://purl.org/dc/dcmitype/StillImage" />
        <dc:title />
      </cc:Work>
    </rdf:RDF>
  </metadata>
  <g
     inkscape:label="Camada 1"
     inkscape:groupmode="layer"
     id="layer1"
     transform="translate(-3.8124299,-355.70346)">
    <rect
       style="fill:#009b3a;fill-opacity:1"
       id="rect3086"
       width="803.84552"
       height="330.10712"
       x="3.7720528"
       y="354.92191" />
    <path
       style="fill:#fedf00;fill-opacity:1"
       clip-path="none"
       d="M 624 -0.6875 L 332.03125 329.40625 L 476.6875 329.40625 L 768.65625 -0.6875 L 624 -0.6875 z "
       transform="translate(3.8124216,355.70346)"
       id="rect3086-0" />
    <path
       style="fill:#fedf00;fill-opacity:1"
       clip-path="none"
       d="M 804.9375 75.9375 L 580.53125 329.625 L 725.1875 329.625 L 804.9375 239.46875 L 804.9375 75.9375 z "
       transform="translate(3.8124216,355.70346)"
       id="rect3086-7" />
    <flowRoot
       xml:space="preserve"
       id="flowRoot3997"
       style="fill:black;stroke:none;stroke-opacity:1;stroke-width:1px;stroke-linejoin:miter;stroke-linecap:butt;fill-opacity:1;font-family:Sans;font-style:normal;font-weight:normal;font-size:40px;line-height:125%;letter-spacing:0px;word-spacing:0px"><flowRegion
         id="flowRegion3999"><rect
           id="rect4001"
           width="347.8367"
           height="109.25125"
           x="-103.62802"
           y="49.965816" /></flowRegion><flowPara
         id="flowPara4003" /></flowRoot>    <path
       style="fill:#002776;fill-opacity:1;stroke:none;stroke-opacity:1;stroke-width:3.60625351000000016;stroke-miterlimit:4;stroke-dasharray:none;opacity:1"
       clip-path="none"
       d="M 0.25 -0.46875 L 0.25 171.59375 C 22.903439 192.28268 53.0595 204.90625 86.15625 204.90625 C 156.5267 204.90625 213.5625 147.87045 213.5625 77.5 C 213.5625 48.138785 203.62383 21.07758 186.9375 -0.46875 L 0.25 -0.46875 z "
       transform="translate(3.8124216,355.70346)"
       id="rect3086-1" />
    <g
       transform="scale(1.0252919,0.975332)"
       style="font-size:80.29138947px;font-style:normal;font-weight:normal;line-height:125%;letter-spacing:0px;word-spacing:0px;fill:#ffffff;fill-opacity:1;stroke:none;font-family:Sans"
       id="text3993">
      <path
         style="font-variant:normal;font-stretch:normal;fill:#ffffff;font-family:Umpush;-inkscape-font-specification:Umpush"
         d="m 64.546629,608.07903 c -0.73186,16.41241 1.641661,33.15408 -1.557069,49.33542 -5.096451,10.55629 -22.803024,11.04704 -28.102094,0.4261 -8.6294,-5.4323 7.880711,-16.21062 6.259257,-3.89657 4.902544,9.56914 20.137865,2.48191 16.425646,-7.83135 -0.346668,-9.45165 -0.101138,-18.90717 -0.06506,-28.36284 -2.980801,-3.34053 -17.492772,-5.05726 -7.68574,-9.72552 4.907286,-0.38481 9.818058,0.44768 14.725062,0.0548 z"
         id="path3092"
         inkscape:connector-curvature="0" />
      <path
         style="font-variant:normal;font-stretch:normal;fill:#ffffff;font-family:Umpush;-inkscape-font-specification:Umpush"
         d="m 81.247866,645.71562 c -1.976081,13.74236 17.87304,18.78373 23.759664,7.06064 12.99901,-0.68332 -1.11383,13.67314 -7.888483,12.45905 -10.821454,2.13825 -22.912258,-5.55767 -23.344159,-17.09808 -2.138386,-11.90765 5.618964,-26.65972 18.966389,-26.40452 10.782973,-0.50852 21.493933,10.61937 18.549003,21.39372 -6.83649,6.08355 -18.239794,0.84287 -26.888288,2.61052 l -1.576924,-0.006 -1.577202,-0.0157 z m 23.326844,-5.80231 c 1.85262,-12.09495 -18.965157,-17.50898 -22.101224,-5.1436 1.307476,7.96882 10.214079,5.00102 15.831308,5.1436 2.089976,0 4.179946,0 6.269916,0 z"
         id="path3094"
         inkscape:connector-curvature="0" />
      <path
         style="font-variant:normal;font-stretch:normal;fill:#ffffff;font-family:Umpush;-inkscape-font-specification:Umpush"
         d="m 137.46752,659.55491 c 6.45758,1.78743 14.91239,-17.48409 16.44778,-4.13764 -4.55678,13.0074 -24.32887,12.95693 -31.47533,2.22181 -8.87902,-11.94595 -3.15755,-33.69192 12.79384,-35.73218 7.70949,-2.51962 24.37562,7.56525 15.99656,14.6316 -6.97848,-2.67086 -13.14601,-15.00225 -20.98304,-5.70163 -7.70765,7.58135 -6.20394,23.77404 4.13395,28.26535 l 1.5243,0.35098 1.56194,0.10171 0,0 z"
         id="path3096"
         inkscape:connector-curvature="0" />
      <path
         style="font-variant:normal;font-stretch:normal;fill:#ffffff;font-family:Umpush;-inkscape-font-specification:Umpush"
         d="m 177.80924,665.35722 c -13.21384,1.33562 -22.35316,-13.66116 -19.61145,-25.57395 0.83344,-13.2812 17.06292,-22.85608 28.78628,-15.76918 15.39726,8.16103 13.83812,35.58772 -3.1785,40.72555 -1.97138,0.39479 -3.97853,0.69753 -5.99633,0.61758 z m 0,-37.55818 c -12.40776,0.56254 -16.24178,17.81066 -9.87482,26.69403 5.53228,8.56616 20.38054,5.29326 21.84607,-4.80304 2.1846,-8.61462 -1.05453,-21.97477 -11.97125,-21.89099 z"
         id="path3098"
         inkscape:connector-curvature="0" />
    </g>
    <g
       transform="scale(0.94213856,1.061415)"
       style="font-size:18.998312px;font-style:normal;font-weight:normal;line-height:125%;letter-spacing:0px;word-spacing:0px;fill:#ffffff;fill-opacity:1;stroke:none;font-family:Sans"
       id="text3140">
      <path
         d="m 805.17159,631.01754 c 0.56277,10e-6 0.98949,-0.12368 1.28016,-0.37106 0.29066,-0.24737 0.43599,-0.61224 0.436,-1.09463 -10e-6,-0.47619 -0.14534,-0.83797 -0.436,-1.08535 -0.29067,-0.25355 -0.71739,-0.38033 -1.28016,-0.38034 l -1.9759,0 0,2.93138 1.9759,0 m 0.1206,6.05757 c 0.71737,0 1.25541,-0.15152 1.61411,-0.45455 0.36487,-0.30303 0.54731,-0.76067 0.54732,-1.37293 -10e-6,-0.59988 -0.17936,-1.04824 -0.53804,-1.34509 -0.3587,-0.30303 -0.89983,-0.45455 -1.62339,-0.45455 l -2.0965,0 0,3.62712 2.0965,0 m 3.32099,-4.98149 c 0.76685,0.22264 1.36055,0.6339 1.78109,1.23377 0.42053,0.59989 0.63079,1.33583 0.63081,2.20781 -2e-5,1.33583 -0.45147,2.3315 -1.35437,2.98704 -0.90293,0.65554 -2.27585,0.98331 -4.11878,0.98331 l -5.9277,0 0,-13.84984 5.36183,0 c 1.92333,10e-6 3.3148,0.29068 4.17444,0.87199 0.86579,0.58134 1.2987,1.51209 1.29871,2.79224 -10e-6,0.6741 -0.15771,1.24924 -0.4731,1.72543 -0.31542,0.47002 -0.77306,0.81943 -1.37293,1.04825"
         style="font-weight:bold;fill:#ffffff;-inkscape-font-specification:Sans Bold"
         id="path3174" />
      <path
         d="m 814.09561,625.65571 9.6383,0 0,2.69947 -6.06684,0 0,2.57887 5.70505,0 0,2.69947 -5.70505,0 0,3.17257 6.27092,0 0,2.69946 -9.84238,0 0,-13.84984"
         style="font-weight:bold;fill:#ffffff;-inkscape-font-specification:Sans Bold"
         id="path3176" />
      <path
         d="m 825.43151,625.65571 12.76449,0 0,2.69947 -4.59187,0 0,11.15037 -3.57146,0 0,-11.15037 -4.60116,0 0,-2.69947"
         style="font-weight:bold;fill:#ffffff;-inkscape-font-specification:Sans Bold"
         id="path3178" />
      <path
         d="m 846.95304,636.98234 -5.58447,0 -0.88126,2.52321 -3.59002,0 5.12992,-13.84984 4.25792,0 5.12992,13.84984 -3.59002,0 -0.87199,-2.52321 m -4.69392,-2.5696 3.7941,0 -1.89241,-5.51025 -1.90169,5.51025"
         style="font-weight:bold;fill:#ffffff;-inkscape-font-specification:Sans Bold"
         id="path3180" />
    </g>
  </g>
</svg>
